<svg id="Layer_1" data-name="Layer 1" xmlns="http://www.w3.org/2000/svg" xmlns:xlink="http://www.w3.org/1999/xlink" viewBox="0 0 478.19537 120.36268">
  <defs>
    <style>
      .cls-1 {
        fill: url(#linear-gradient);
      }

      .cls-2 {
        fill: url(#linear-gradient-2);
      }

      .cls-3 {
        fill: url(#linear-gradient-3);
      }

      .cls-4 {
        fill: url(#linear-gradient-4);
      }

      .cls-5 {
        fill: url(#linear-gradient-7);
      }
    </style>
    <linearGradient id="linear-gradient" x1="15" y1="273.26701" x2="488.40086" y2="273.26701" gradientUnits="userSpaceOnUse">
      <stop offset="0" stop-color="#7c3aed"/>
      <stop offset="1" stop-color="#a855f7"/>
    </linearGradient>
    <linearGradient id="linear-gradient-2" x1="15" y1="258.10723" x2="488.40086" y2="258.10723" xlink:href="#linear-gradient"/>
    <linearGradient id="linear-gradient-3" x1="15" y1="256.62581" x2="488.40086" y2="256.62581" xlink:href="#linear-gradient"/>
    <linearGradient id="linear-gradient-4" x1="15" y1="272.64174" x2="488.40086" y2="272.64174" xlink:href="#linear-gradient"/>
    <linearGradient id="linear-gradient-7" x1="15" y1="252" x2="488.40086" y2="252" xlink:href="#linear-gradient"/>
  </defs>
  <g>
    <path class="cls-1" d="M118.07763,312.097V268.67124c0-21.71365,14.10535-34.2342,37.72107-34.2342,6.97375,0,9.19154.63454,13.94749,1.10967v16.79983a78.85153,78.85153,0,0,0-11.72815-1.10967c-11.253,0-18.38618,5.70621-18.38618,16.642V312.097Z" transform="translate(-15.32243 -192.06006)"/>
    <path class="cls-2" d="M181.94329,312.097V236.33911h21.55423V312.097Zm21.55423-97.20236a10.77712,10.77712,0,1,1-10.77712-10.77712A10.77712,10.77712,0,0,1,203.49752,214.89461Z" transform="translate(-15.32243 -192.06006)"/>
    <path class="cls-3" d="M224.0984,312.097V201.15466h21.55578V312.097Z" transform="translate(-15.32243 -192.06006)"/>
    <path class="cls-4" d="M262.13364,272.64174c0-23.29844,16.95769-39.781,39.781-39.781,22.82177,0,39.781,16.48256,39.781,39.781s-16.95923,39.781-39.781,39.781C279.09133,312.42274,262.13364,295.94018,262.13364,272.64174Zm58.00777,0c0-15.05717-7.13316-22.82331-18.22677-22.82331-11.09516,0-18.22677,7.76614-18.22677,22.82331s7.13161,22.82176,18.22677,22.82176C313.00825,295.4635,320.14141,287.6989,320.14141,272.64174Z" transform="translate(-15.32243 -192.06006)"/>
    <path class="cls-1" d="M357.69533,312.097V268.67124c0-21.71365,14.10536-34.2342,37.72107-34.2342,6.97375,0,9.19154.63454,13.9475,1.10967v16.79983a78.85166,78.85166,0,0,0-11.72816-1.10967c-11.253,0-18.38617,5.70621-18.38617,16.642V312.097Z" transform="translate(-15.32243 -192.06006)"/>
    <path class="cls-4" d="M493.5178,310.52067H474.49863v-7.44888c-4.43713,5.07168-11.41088,9.35095-22.18877,9.35095-21.39637,0-35.97686-14.26476-35.97686-37.24439,0-24.09084,14.42263-42.31761,38.9886-42.31761,23.29845,0,38.1962,12.83782,38.1962,39.62314ZM455.47946,249.82c-10.77634,0-17.59223,7.7646-17.59223,22.82177s6.81589,22.82331,17.59223,22.82331c10.77789,0,17.59223-7.76615,17.59223-22.82331S466.25735,249.82,455.47946,249.82Z" transform="translate(-15.32243 -192.06006)"/>
    <path class="cls-5" d="M15.32243,311.93994V192.06006H65.05632q10.85155,0,17.73925,3.40185a30.87275,30.87275,0,0,1,10.6919,8.18116,28.31721,28.31721,0,0,1,5.26514,9.96289,40.21382,40.21382,0,0,1,1.62011,8.748,31.11483,31.11483,0,0,1-3.40234,15.39014,26.64448,26.64448,0,0,1-11.502,11.66357,25.92771,25.92771,0,0,1,9.15332,4.7793,31.10564,31.10564,0,0,1,6.31787,7.04688,29.54033,29.54033,0,0,1,3.72607,8.42382,35.54025,35.54025,0,0,1,1.21485,9.23438,45.9018,45.9018,0,0,1-1.377,10.61035,26.98842,26.98842,0,0,1-5.34619,10.69238,31.55362,31.55362,0,0,1-10.854,8.34278q-6.887,3.40283-17.73877,3.40234Zm62.0459-84.40185a20.21788,20.21788,0,0,0-.89063-6.0752,13.92678,13.92678,0,0,0-2.51123-4.77881,12.53431,12.53431,0,0,0-9.5581-4.374h-26.73V241.794H64.24675a13.27236,13.27236,0,0,0,5.66992-1.13379,11.52886,11.52886,0,0,0,4.0498-3.07813,14.13648,14.13648,0,0,0,2.51123-4.61719A17.09672,17.09672,0,0,0,77.36833,227.53809Zm5.34619,48.76123a15.1323,15.1323,0,0,0-1.05322-5.58887,13.823,13.823,0,0,0-2.835-4.53613,13.25678,13.25678,0,0,0-4.45459-2.99707,14.20537,14.20537,0,0,0-5.58936-1.13379h-31.104v29.64648H68.9445a15.52025,15.52025,0,0,0,4.77881-.81055,12.30538,12.30538,0,0,0,7.77637-7.29A19.03579,19.03579,0,0,0,82.71452,276.29932Z" transform="translate(-15.32243 -192.06006)"/>
  </g>
</svg>
